<svg height="512pt" viewBox="0 -19 512 512" width="512pt" xmlns="http://www.w3.org/2000/svg"><path d="m364.5 0c-39.964844 0-79.421875 16.128906-108.496094 43.785156-29.078125-27.65625-68.535156-43.785156-108.503906-43.785156-82.710938 0-147.5 64.789062-147.5 147.5 0 96.671875 111.4375 203.085938 246.066406 322.136719 2.835938 2.507812 6.386719 3.761719 9.9375 3.761719 3.550782 0 7.101563-1.253907 9.9375-3.761719 134.621094-119.058594 246.058594-225.472657 246.058594-322.136719 0-82.710938-64.789062-147.5-147.5-147.5zm0 0" fill="#ff4949"/><path d="m364.5 0c-39.964844 0-79.421875 16.128906-108.496094 43.785156-.003906-.003906-.011718-.011718-.015625-.015625v429.628907h.015625c3.550782 0 7.101563-1.253907 9.9375-3.765626 134.621094-119.054687 246.058594-225.46875 246.058594-322.132812 0-82.710938-64.789062-147.5-147.5-147.5zm0 0" fill="#f30051"/></svg>